<?xml version="1.0" standalone="no"?>
<!DOCTYPE svg PUBLIC "-//W3C//DTD SVG 20010904//EN"
 "http://www.w3.org/TR/2001/REC-SVG-20010904/DTD/svg10.dtd">
<svg version="1.0" xmlns="http://www.w3.org/2000/svg"
 width="200.000000pt" height="200.000000pt" viewBox="0 0 200.000000 200.000000"
 preserveAspectRatio="xMidYMid meet">
<metadata>
Created by potrace 1.10, written by Peter Selinger 2001-2011
</metadata>
<g transform="translate(0.000000,200.000000) scale(0.100000,-0.100000)"
fill="#000000" stroke="none">
<path d="M779 1706 c-16 -34 -41 -37 -91 -12 -77 38 -221 21 -193 -23 3 -7 47
-32 96 -57 50 -24 92 -51 96 -59 3 -9 -1 -25 -9 -38 -29 -44 -128 -235 -128
-246 0 -6 6 -11 13 -11 7 0 43 60 81 133 38 72 70 133 72 135 1 2 12 -1 23 -7
20 -11 17 -19 -82 -221 -56 -115 -107 -209 -113 -209 -5 -1 -18 5 -28 12 -17
13 -17 16 8 65 30 60 31 65 10 60 -20 -4 -74 -105 -67 -124 3 -8 18 -21 34
-29 61 -32 61 -32 177 204 59 121 113 220 120 220 7 1 53 -20 103 -45 90 -45
119 -49 119 -19 0 33 -42 96 -83 124 -68 47 -88 71 -77 92 16 28 12 57 -9 69
-33 17 -61 12 -72 -14z m56 -16 c3 -5 2 -16 -2 -24 -11 -20 -38 -3 -30 18 7
18 23 21 32 6z m-187 -15 c59 -18 67 -27 52 -55 -10 -19 -13 -19 -85 17 -48
24 -70 40 -62 45 18 11 37 10 95 -7z m153 -45 l40 -21 -22 -39 c-13 -22 -26
-40 -30 -40 -4 0 -24 9 -43 21 l-36 21 20 39 c11 21 23 39 26 39 2 0 23 -9 45
-20z m88 -75 c29 -14 104 -95 97 -102 -3 -4 -143 62 -154 72 -5 4 17 45 24 45
3 0 18 -7 33 -15z"/>
<path d="M1125 1458 c-17 -46 -31 -105 -27 -116 2 -6 10 -12 17 -12 20 0 115
61 115 73 0 6 -12 24 -27 39 -28 29 -70 37 -78 16z m53 -30 c18 -18 15 -26
-18 -43 -34 -18 -34 -18 -19 24 12 34 19 37 37 19z"/>
<path d="M1047 1434 c-11 -11 -8 -74 2 -74 13 0 18 10 22 44 4 28 -10 44 -24
30z"/>
<path d="M1186 1311 l-59 -48 -49 30 c-39 24 -62 31 -123 35 -62 4 -75 2 -75
-11 0 -11 15 -16 63 -19 37 -2 81 -13 110 -27 45 -22 47 -24 32 -41 -16 -18
-18 -18 -50 1 -42 25 -119 34 -171 20 -52 -14 -122 -74 -145 -125 -24 -53 -24
-139 0 -191 17 -37 74 -98 101 -107 15 -5 2 -38 -16 -38 -25 0 -101 79 -124
127 -27 57 -29 160 -5 216 21 50 80 114 127 138 21 11 38 26 38 34 0 21 -8 19
-67 -15 -91 -52 -147 -150 -147 -260 0 -101 47 -192 128 -247 l41 -28 -163 -5
c-98 -3 -162 -9 -162 -15 0 -16 1062 -14 1068 3 2 6 -4 12 -13 12 -22 0 -48
62 -54 130 -3 30 -10 54 -16 53 -18 -5 -17 -103 0 -140 9 -19 15 -37 12 -39
-2 -2 -148 -3 -325 -2 l-321 3 54 65 c47 56 59 81 92 184 l37 118 126 103 125
103 28 -16 c25 -15 27 -21 27 -85 0 -67 1 -70 37 -100 83 -71 93 -84 93 -122
0 -44 23 -44 28 -1 5 44 -15 77 -73 124 l-54 42 -3 72 c-3 70 -4 73 -37 95
-19 13 -39 23 -45 23 -6 0 -38 -22 -70 -49z m-173 -102 l27 -12 -22 -24 c-26
-28 -48 -30 -55 -3 -6 23 -33 27 -33 5 0 -20 -20 -19 -36 3 -12 15 -15 15 -23
2 -6 -8 -16 -15 -23 -15 -7 0 -14 -8 -16 -17 -2 -10 1 -18 7 -18 7 0 11 -35
11 -100 0 -60 -4 -100 -10 -100 -5 0 -10 -7 -10 -15 0 -10 10 -15 30 -15 34 0
37 -6 13 -32 -21 -24 -30 -23 -68 6 -41 31 -75 103 -75 158 0 80 61 164 137
188 35 11 110 6 146 -11z m-49 -88 c4 -5 2 -21 -4 -35 -8 -21 -16 -26 -45 -26
-33 0 -35 2 -35 35 0 34 1 35 39 35 22 0 42 -4 45 -9z m-24 -98 c-1 -26 -31
-89 -44 -91 -13 -3 -16 6 -16 41 0 24 3 47 7 50 9 9 53 9 53 0z"/>
<path d="M1150 1145 c-20 -24 2 -41 24 -20 16 16 14 35 -3 35 -5 0 -14 -7 -21
-15z"/>
<path d="M1062 1057 c-29 -30 -32 -39 -32 -95 0 -48 3 -62 15 -62 11 0 15 12
15 52 0 45 4 57 31 84 17 18 28 37 25 43 -11 17 -20 13 -54 -22z"/>
<path d="M1315 1030 c-4 -6 0 -19 9 -29 11 -12 16 -36 16 -75 0 -80 24 -71 28
10 2 52 0 63 -22 83 -16 15 -26 19 -31 11z"/>
<path d="M420 511 c0 -5 5 -11 11 -13 7 -2 -11 -49 -45 -116 -37 -73 -51 -112
-43 -112 8 0 22 18 32 40 l18 40 67 0 67 0 18 -40 c10 -22 24 -40 32 -40 9 0
2 22 -23 73 -85 172 -88 177 -111 177 -13 0 -23 -4 -23 -9z m72 -86 l27 -55
-58 0 -58 0 26 55 c14 30 28 55 31 55 3 0 17 -25 32 -55z"/>
<path d="M600 418 c0 -7 12 -25 27 -40 l27 -28 -27 -28 c-25 -26 -35 -52 -20
-52 3 0 19 15 35 32 l28 33 27 -33 c16 -18 31 -32 36 -32 15 0 6 28 -18 50
-31 29 -31 28 0 64 14 16 25 33 25 38 0 17 -20 7 -44 -24 l-26 -33 -28 33
c-28 34 -42 40 -42 20z"/>
<path d="M795 405 c-49 -48 -17 -135 49 -135 35 0 80 26 71 41 -4 5 -15 3 -28
-6 -31 -21 -63 -19 -82 8 l-16 22 63 5 c60 5 63 6 60 30 -3 31 -36 60 -69 60
-13 0 -35 -11 -48 -25z m76 -5 c36 -20 23 -40 -26 -40 -48 0 -62 19 -27 39 22
13 29 13 53 1z"/>
<path d="M1010 415 c-9 -11 -16 -12 -26 -4 -7 6 -23 9 -36 6 l-23 -4 23 -8
c20 -7 22 -14 22 -71 0 -36 4 -64 10 -64 6 0 10 24 10 54 0 45 4 58 22 70 30
21 38 20 38 -4 0 -11 7 -20 15 -20 8 0 15 9 15 19 0 14 5 18 20 14 17 -5 20
-14 20 -69 0 -36 4 -64 10 -64 6 0 10 32 10 76 l0 76 -34 -3 c-19 -2 -38 0
-42 4 -12 12 -41 8 -54 -8z"/>
<path d="M1316 423 c-3 -3 -6 -30 -6 -60 0 -47 -3 -55 -24 -65 -42 -18 -55 -5
-58 59 -3 55 -4 58 -30 61 -16 2 -28 -1 -28 -7 0 -6 7 -11 15 -11 11 0 15 -12
15 -49 0 -32 6 -55 16 -65 20 -20 68 -21 85 0 11 14 13 14 21 0 10 -18 48 -22
48 -6 0 6 -7 10 -15 10 -12 0 -15 14 -15 64 0 60 -8 84 -24 69z"/>
<path d="M1374 418 c-3 -5 3 -12 15 -15 19 -5 21 -13 21 -70 0 -47 3 -64 13
-60 8 2 11 20 9 50 -3 36 1 50 18 67 38 38 55 23 58 -53 4 -82 20 -89 24 -10
3 51 6 59 31 73 24 13 29 13 37 0 5 -8 10 -39 10 -68 0 -56 13 -72 48 -56 15
7 14 8 -5 11 -20 4 -22 11 -25 66 -3 57 -5 62 -30 71 -21 8 -32 6 -46 -7 -17
-16 -20 -16 -32 -2 -16 19 -40 19 -68 -1 -12 -8 -22 -11 -22 -6 0 13 -49 22
-56 10z"/>
</g>
</svg>
